<svg width="15" height="13" viewBox="0 0 15 13" fill="none" xmlns="http://www.w3.org/2000/svg">
<path d="M1 1.75551V5.40953M1 5.40953H4.48701M1 5.40953L3.69662 2.75428C4.32123 2.09942 5.09397 1.62105 5.94273 1.36378C6.79149 1.10652 7.68861 1.07876 8.55038 1.28308C9.41215 1.48741 10.2105 1.91716 10.8709 2.53225C11.5313 3.14733 12.0322 3.9277 12.327 4.80053M13.7857 11.4996V7.84555M13.7857 7.84555H10.2987M13.7857 7.84555L11.0891 10.5008C10.4645 11.1557 9.69174 11.634 8.84298 11.8913C7.99422 12.1486 7.09711 12.1763 6.23534 11.972C5.37357 11.7677 4.57523 11.3379 3.91483 10.7228C3.25443 10.1078 2.75348 9.32738 2.45873 8.45455" stroke="white" stroke-opacity="0.9" stroke-width="1.3699" stroke-linecap="round" stroke-linejoin="round"/>
</svg>
