<svg width="138" height="137" viewBox="0 0 138 137" fill="none" xmlns="http://www.w3.org/2000/svg">
<path d="M7.07369 0.086853H0.555176V6.60537H7.07369V0.086853Z" fill="#1D1E1F"/>
<path d="M13.5922 0.086853H7.07369V6.60537H13.5922V0.086853Z" fill="#1D1E1F"/>
<path d="M20.1107 0.086853H13.5922V6.60537H20.1107V0.086853Z" fill="#1D1E1F"/>
<path d="M26.6292 0.086853H20.1107V6.60537H26.6292V0.086853Z" fill="#1D1E1F"/>
<path d="M33.1478 0.086853H26.6292V6.60537H33.1478V0.086853Z" fill="#1D1E1F"/>
<path d="M39.6663 0.086853H33.1478V6.60537H39.6663V0.086853Z" fill="#1D1E1F"/>
<path d="M46.1848 0.086853H39.6663V6.60537H46.1848V0.086853Z" fill="#1D1E1F"/>
<path d="M59.2218 0.086853H52.7033V6.60537H59.2218V0.086853Z" fill="#1D1E1F"/>
<path d="M65.7404 0.086853H59.2218V6.60537H65.7404V0.086853Z" fill="#1D1E1F"/>
<path d="M72.2589 0.086853H65.7404V6.60537H72.2589V0.086853Z" fill="#1D1E1F"/>
<path d="M78.7774 0.086853H72.2589V6.60537H78.7774V0.086853Z" fill="#1D1E1F"/>
<path d="M85.2959 0.086853H78.7774V6.60537H85.2959V0.086853Z" fill="#1D1E1F"/>
<path d="M98.333 0.086853H91.8144V6.60537H98.333V0.086853Z" fill="#1D1E1F"/>
<path d="M104.851 0.086853H98.333V6.60537H104.851V0.086853Z" fill="#1D1E1F"/>
<path d="M111.37 0.086853H104.851V6.60537H111.37V0.086853Z" fill="#1D1E1F"/>
<path d="M117.889 0.086853H111.37V6.60537H117.889V0.086853Z" fill="#1D1E1F"/>
<path d="M124.407 0.086853H117.889V6.60537H124.407V0.086853Z" fill="#1D1E1F"/>
<path d="M130.926 0.086853H124.407V6.60537H130.926V0.086853Z" fill="#1D1E1F"/>
<path d="M137.444 0.086853H130.926V6.60537H137.444V0.086853Z" fill="#1D1E1F"/>
<path d="M7.07369 6.60537H0.555176V13.1239H7.07369V6.60537Z" fill="#1D1E1F"/>
<path d="M46.1848 6.60537H39.6663V13.1239H46.1848V6.60537Z" fill="#1D1E1F"/>
<path d="M85.2959 6.60537H78.7774V13.1239H85.2959V6.60537Z" fill="#1D1E1F"/>
<path d="M98.333 6.60537H91.8144V13.1239H98.333V6.60537Z" fill="#1D1E1F"/>
<path d="M137.444 6.60537H130.926V13.1239H137.444V6.60537Z" fill="#1D1E1F"/>
<path d="M7.07369 13.1239H0.555176V19.6424H7.07369V13.1239Z" fill="#1D1E1F"/>
<path d="M20.1107 13.1239H13.5922V19.6424H20.1107V13.1239Z" fill="#1D1E1F"/>
<path d="M26.6292 13.1239H20.1107V19.6424H26.6292V13.1239Z" fill="#1D1E1F"/>
<path d="M33.1478 13.1239H26.6292V19.6424H33.1478V13.1239Z" fill="#1D1E1F"/>
<path d="M46.1848 13.1239H39.6663V19.6424H46.1848V13.1239Z" fill="#1D1E1F"/>
<path d="M59.2218 13.1239H52.7033V19.6424H59.2218V13.1239Z" fill="#1D1E1F"/>
<path d="M65.7404 13.1239H59.2218V19.6424H65.7404V13.1239Z" fill="#1D1E1F"/>
<path d="M72.2589 13.1239H65.7404V19.6424H72.2589V13.1239Z" fill="#1D1E1F"/>
<path d="M85.2959 13.1239H78.7774V19.6424H85.2959V13.1239Z" fill="#1D1E1F"/>
<path d="M98.333 13.1239H91.8144V19.6424H98.333V13.1239Z" fill="#1D1E1F"/>
<path d="M111.37 13.1239H104.851V19.6424H111.37V13.1239Z" fill="#1D1E1F"/>
<path d="M117.889 13.1239H111.37V19.6424H117.889V13.1239Z" fill="#1D1E1F"/>
<path d="M124.407 13.1239H117.889V19.6424H124.407V13.1239Z" fill="#1D1E1F"/>
<path d="M137.444 13.1239H130.926V19.6424H137.444V13.1239Z" fill="#1D1E1F"/>
<path d="M7.07369 19.6424H0.555176V26.1609H7.07369V19.6424Z" fill="#1D1E1F"/>
<path d="M20.1107 19.6424H13.5922V26.1609H20.1107V19.6424Z" fill="#1D1E1F"/>
<path d="M26.6292 19.6424H20.1107V26.1609H26.6292V19.6424Z" fill="#1D1E1F"/>
<path d="M33.1478 19.6424H26.6292V26.1609H33.1478V19.6424Z" fill="#1D1E1F"/>
<path d="M46.1848 19.6424H39.6663V26.1609H46.1848V19.6424Z" fill="#1D1E1F"/>
<path d="M85.2959 19.6424H78.7774V26.1609H85.2959V19.6424Z" fill="#1D1E1F"/>
<path d="M98.333 19.6424H91.8144V26.1609H98.333V19.6424Z" fill="#1D1E1F"/>
<path d="M111.37 19.6424H104.851V26.1609H111.37V19.6424Z" fill="#1D1E1F"/>
<path d="M117.889 19.6424H111.37V26.1609H117.889V19.6424Z" fill="#1D1E1F"/>
<path d="M124.407 19.6424H117.889V26.1609H124.407V19.6424Z" fill="#1D1E1F"/>
<path d="M137.444 19.6424H130.926V26.1609H137.444V19.6424Z" fill="#1D1E1F"/>
<path d="M7.07369 26.1609H0.555176V32.6794H7.07369V26.1609Z" fill="#1D1E1F"/>
<path d="M20.1107 26.1609H13.5922V32.6794H20.1107V26.1609Z" fill="#1D1E1F"/>
<path d="M26.6292 26.1609H20.1107V32.6794H26.6292V26.1609Z" fill="#1D1E1F"/>
<path d="M33.1478 26.1609H26.6292V32.6794H33.1478V26.1609Z" fill="#1D1E1F"/>
<path d="M46.1848 26.1609H39.6663V32.6794H46.1848V26.1609Z" fill="#1D1E1F"/>
<path d="M72.2589 26.1609H65.7403V32.6794H72.2589V26.1609Z" fill="#1D1E1F"/>
<path d="M85.2959 26.1609H78.7774V32.6794H85.2959V26.1609Z" fill="#1D1E1F"/>
<path d="M98.333 26.1609H91.8144V32.6794H98.333V26.1609Z" fill="#1D1E1F"/>
<path d="M111.37 26.1609H104.851V32.6794H111.37V26.1609Z" fill="#1D1E1F"/>
<path d="M117.889 26.1609H111.37V32.6794H117.889V26.1609Z" fill="#1D1E1F"/>
<path d="M124.407 26.1609H117.889V32.6794H124.407V26.1609Z" fill="#1D1E1F"/>
<path d="M137.444 26.1609H130.926V32.6794H137.444V26.1609Z" fill="#1D1E1F"/>
<path d="M7.07369 32.6794H0.555176V39.198H7.07369V32.6794Z" fill="#1D1E1F"/>
<path d="M46.1848 32.6794H39.6663V39.198H46.1848V32.6794Z" fill="#1D1E1F"/>
<path d="M78.7774 32.6794H72.2589V39.198H78.7774V32.6794Z" fill="#1D1E1F"/>
<path d="M98.333 32.6794H91.8144V39.198H98.333V32.6794Z" fill="#1D1E1F"/>
<path d="M137.444 32.6794H130.926V39.198H137.444V32.6794Z" fill="#1D1E1F"/>
<path d="M7.07369 39.198H0.555176V45.7165H7.07369V39.198Z" fill="#1D1E1F"/>
<path d="M13.5922 39.198H7.07369V45.7165H13.5922V39.198Z" fill="#1D1E1F"/>
<path d="M20.1107 39.198H13.5922V45.7165H20.1107V39.198Z" fill="#1D1E1F"/>
<path d="M26.6292 39.198H20.1107V45.7165H26.6292V39.198Z" fill="#1D1E1F"/>
<path d="M33.1478 39.198H26.6292V45.7165H33.1478V39.198Z" fill="#1D1E1F"/>
<path d="M39.6663 39.198H33.1478V45.7165H39.6663V39.198Z" fill="#1D1E1F"/>
<path d="M46.1848 39.198H39.6663V45.7165H46.1848V39.198Z" fill="#1D1E1F"/>
<path d="M59.2218 39.198H52.7033V45.7165H59.2218V39.198Z" fill="#1D1E1F"/>
<path d="M72.2589 39.198H65.7403V45.7165H72.2589V39.198Z" fill="#1D1E1F"/>
<path d="M85.2959 39.198H78.7774V45.7165H85.2959V39.198Z" fill="#1D1E1F"/>
<path d="M98.333 39.198H91.8144V45.7165H98.333V39.198Z" fill="#1D1E1F"/>
<path d="M104.851 39.198H98.333V45.7165H104.851V39.198Z" fill="#1D1E1F"/>
<path d="M111.37 39.198H104.851V45.7165H111.37V39.198Z" fill="#1D1E1F"/>
<path d="M117.889 39.198H111.37V45.7165H117.889V39.198Z" fill="#1D1E1F"/>
<path d="M124.407 39.198H117.889V45.7165H124.407V39.198Z" fill="#1D1E1F"/>
<path d="M130.926 39.198H124.407V45.7165H130.926V39.198Z" fill="#1D1E1F"/>
<path d="M137.444 39.198H130.926V45.7165H137.444V39.198Z" fill="#1D1E1F"/>
<path d="M59.2218 45.7165H52.7033V52.235H59.2218V45.7165Z" fill="#1D1E1F"/>
<path d="M65.7403 45.7165H59.2218V52.235H65.7404L65.7403 45.7165Z" fill="#1D1E1F"/>
<path d="M72.2589 45.7165H65.7403L65.7404 52.235H72.2589V45.7165Z" fill="#1D1E1F"/>
<path d="M7.07369 52.235H0.555176V58.7535H7.07369V52.235Z" fill="#1D1E1F"/>
<path d="M20.1107 52.235H13.5922V58.7535H20.1107V52.235Z" fill="#1D1E1F"/>
<path d="M39.6663 52.235H33.1478V58.7535H39.6663V52.235Z" fill="#1D1E1F"/>
<path d="M46.1848 52.235H39.6663V58.7535H46.1848V52.235Z" fill="#1D1E1F"/>
<path d="M78.7774 52.235L72.2589 52.235V58.7535H78.7774V52.235Z" fill="#1D1E1F"/>
<path d="M85.2959 52.235H78.7774V58.7535H85.2959V52.235Z" fill="#1D1E1F"/>
<path d="M91.8144 52.235H85.2959V58.7535H91.8144V52.235Z" fill="#1D1E1F"/>
<path d="M98.333 52.235H91.8144V58.7535H98.333V52.235Z" fill="#1D1E1F"/>
<path d="M124.407 52.235H117.889V58.7535H124.407V52.235Z" fill="#1D1E1F"/>
<path d="M137.444 52.235H130.926V58.7535H137.444V52.235Z" fill="#1D1E1F"/>
<path d="M20.1107 58.7535H13.5922V65.272H20.1107V58.7535Z" fill="#1D1E1F"/>
<path d="M26.6292 58.7535L20.1107 58.7535V65.272H26.6292V58.7535Z" fill="#1D1E1F"/>
<path d="M33.1478 58.7535L26.6292 58.7535V65.272H33.1478V58.7535Z" fill="#1D1E1F"/>
<path d="M39.6663 58.7535H33.1478V65.272H39.6663V58.7535Z" fill="#1D1E1F"/>
<path d="M52.7033 58.7535L46.1848 58.7535V65.272H52.7033V58.7535Z" fill="#1D1E1F"/>
<path d="M59.2218 58.7535H52.7033V65.272H59.2218V58.7535Z" fill="#1D1E1F"/>
<path d="M65.7404 58.7535H59.2218V65.272H65.7404V58.7535Z" fill="#1D1E1F"/>
<path d="M85.2959 58.7535H78.7774V65.272H85.2959V58.7535Z" fill="#1D1E1F"/>
<path d="M91.8144 58.7535H85.2959V65.272H91.8144V58.7535Z" fill="#1D1E1F"/>
<path d="M104.851 58.7535L98.333 58.7535V65.272H104.851V58.7535Z" fill="#1D1E1F"/>
<path d="M26.6292 65.272H20.1107V71.7906H26.6292V65.272Z" fill="#1D1E1F"/>
<path d="M33.1478 65.272H26.6292V71.7906H33.1478V65.272Z" fill="#1D1E1F"/>
<path d="M39.6663 65.272H33.1478V71.7906H39.6663V65.272Z" fill="#1D1E1F"/>
<path d="M46.1848 65.272H39.6663V71.7906H46.1848V65.272Z" fill="#1D1E1F"/>
<path d="M52.7033 65.272H46.1848V71.7906H52.7033V65.272Z" fill="#1D1E1F"/>
<path d="M65.7404 65.272H59.2218L59.2218 71.7906H65.7404V65.272Z" fill="#1D1E1F"/>
<path d="M72.2589 65.272L65.7404 65.272V71.7906H72.2589V65.272Z" fill="#1D1E1F"/>
<path d="M78.7774 65.272L72.2589 65.272V71.7906H78.7774V65.272Z" fill="#1D1E1F"/>
<path d="M98.333 65.272H91.8144V71.7906H98.333V65.272Z" fill="#1D1E1F"/>
<path d="M104.851 65.272H98.333V71.7906H104.851V65.272Z" fill="#1D1E1F"/>
<path d="M117.889 65.272H111.37V71.7906H117.889V65.272Z" fill="#1D1E1F"/>
<path d="M137.444 65.272H130.926V71.7906H137.444V65.272Z" fill="#1D1E1F"/>
<path d="M13.5922 71.7906H7.07369V78.3091H13.5922V71.7906Z" fill="#1D1E1F"/>
<path d="M20.1107 71.7906H13.5922V78.3091H20.1107V71.7906Z" fill="#1D1E1F"/>
<path d="M52.7033 71.7906H46.1848V78.3091H52.7033V71.7906Z" fill="#1D1E1F"/>
<path d="M59.2218 71.7906H52.7033V78.3091H59.2218L59.2218 71.7906Z" fill="#1D1E1F"/>
<path d="M91.8144 71.7906H85.2959V78.3091H91.8144V71.7906Z" fill="#1D1E1F"/>
<path d="M98.333 71.7906H91.8144V78.3091H98.333V71.7906Z" fill="#1D1E1F"/>
<path d="M104.851 71.7906H98.333V78.3091H104.851V71.7906Z" fill="#1D1E1F"/>
<path d="M111.37 71.7906H104.851V78.3091H111.37V71.7906Z" fill="#1D1E1F"/>
<path d="M20.1107 78.3091H13.5922V84.8276H20.1107V78.3091Z" fill="#1D1E1F"/>
<path d="M26.6292 78.3091H20.1107V84.8276H26.6292V78.3091Z" fill="#1D1E1F"/>
<path d="M33.1478 78.3091H26.6292V84.8276H33.1478V78.3091Z" fill="#1D1E1F"/>
<path d="M46.1848 78.3091H39.6663V84.8276H46.1848V78.3091Z" fill="#1D1E1F"/>
<path d="M59.2218 78.3091H52.7033L52.7033 84.8276H59.2218V78.3091Z" fill="#1D1E1F"/>
<path d="M78.7774 78.3091H72.2589V84.8276H78.7774V78.3091Z" fill="#1D1E1F"/>
<path d="M98.333 78.3091H91.8144V84.8276H98.333V78.3091Z" fill="#1D1E1F"/>
<path d="M111.37 78.3091H104.851V84.8276H111.37V78.3091Z" fill="#1D1E1F"/>
<path d="M130.926 78.3091H124.407V84.8276H130.926V78.3091Z" fill="#1D1E1F"/>
<path d="M65.7404 84.8276H59.2218L59.2218 91.3461H65.7404V84.8276Z" fill="#1D1E1F"/>
<path d="M85.2959 84.8276H78.7774V91.3461H85.2959V84.8276Z" fill="#1D1E1F"/>
<path d="M91.8144 84.8276H85.2959V91.3461H91.8144V84.8276Z" fill="#1D1E1F"/>
<path d="M98.333 84.8276H91.8144V91.3461H98.333V84.8276Z" fill="#1D1E1F"/>
<path d="M104.851 84.8276H98.333V91.3461H104.851V84.8276Z" fill="#1D1E1F"/>
<path d="M111.37 84.8276H104.851V91.3461H111.37V84.8276Z" fill="#1D1E1F"/>
<path d="M7.07369 91.3461H0.555176V97.8646H7.07369V91.3461Z" fill="#1D1E1F"/>
<path d="M13.5922 91.3461H7.07369V97.8646H13.5922V91.3461Z" fill="#1D1E1F"/>
<path d="M20.1107 91.3461H13.5922V97.8646H20.1107V91.3461Z" fill="#1D1E1F"/>
<path d="M26.6292 91.3461H20.1107V97.8646H26.6292V91.3461Z" fill="#1D1E1F"/>
<path d="M33.1478 91.3461H26.6292V97.8646H33.1478V91.3461Z" fill="#1D1E1F"/>
<path d="M39.6663 91.3461H33.1478V97.8646H39.6663V91.3461Z" fill="#1D1E1F"/>
<path d="M46.1848 91.3461H39.6663V97.8646H46.1848V91.3461Z" fill="#1D1E1F"/>
<path d="M65.7404 91.3461H59.2218V97.8646H65.7404V91.3461Z" fill="#1D1E1F"/>
<path d="M85.2959 91.3461H78.7774V97.8646H85.2959V91.3461Z" fill="#1D1E1F"/>
<path d="M91.8144 91.3461H85.2959V97.8646H91.8144V91.3461Z" fill="#1D1E1F"/>
<path d="M104.851 91.3461H98.333V97.8646H104.851V91.3461Z" fill="#1D1E1F"/>
<path d="M111.37 91.3461H104.851V97.8646H111.37V91.3461Z" fill="#1D1E1F"/>
<path d="M124.407 91.3461H117.889V97.8646H124.407V91.3461Z" fill="#1D1E1F"/>
<path d="M137.444 91.3461H130.926V97.8646H137.444V91.3461Z" fill="#1D1E1F"/>
<path d="M7.07369 97.8646H0.555176V104.383H7.07369V97.8646Z" fill="#1D1E1F"/>
<path d="M46.1848 97.8646H39.6663V104.383H46.1848V97.8646Z" fill="#1D1E1F"/>
<path d="M59.2218 97.8646H52.7033V104.383H59.2218L59.2218 97.8646Z" fill="#1D1E1F"/>
<path d="M78.7774 97.8646H72.2589V104.383H78.7774V97.8646Z" fill="#1D1E1F"/>
<path d="M85.2959 97.8646H78.7774V104.383H85.2959V97.8646Z" fill="#1D1E1F"/>
<path d="M124.407 97.8646H117.889V104.383H124.407V97.8646Z" fill="#1D1E1F"/>
<path d="M130.926 97.8646H124.407V104.383H130.926V97.8646Z" fill="#1D1E1F"/>
<path d="M7.07369 104.383H0.555176V110.902H7.07369V104.383Z" fill="#1D1E1F"/>
<path d="M20.1107 104.383H13.5922V110.902H20.1107V104.383Z" fill="#1D1E1F"/>
<path d="M26.6292 104.383H20.1107V110.902H26.6292V104.383Z" fill="#1D1E1F"/>
<path d="M33.1478 104.383H26.6292V110.902H33.1478V104.383Z" fill="#1D1E1F"/>
<path d="M46.1848 104.383H39.6663V110.902H46.1848V104.383Z" fill="#1D1E1F"/>
<path d="M65.7404 104.383H59.2218L59.2218 110.902H65.7404V104.383Z" fill="#1D1E1F"/>
<path d="M72.2589 104.383H65.7404V110.902H72.2589V104.383Z" fill="#1D1E1F"/>
<path d="M91.8144 104.383H85.2959V110.902H91.8144V104.383Z" fill="#1D1E1F"/>
<path d="M98.333 104.383H91.8144V110.902H98.333V104.383Z" fill="#1D1E1F"/>
<path d="M104.851 104.383H98.333V110.902H104.851V104.383Z" fill="#1D1E1F"/>
<path d="M117.889 104.383H111.37V110.902H117.889V104.383Z" fill="#1D1E1F"/>
<path d="M124.407 104.383H117.889V110.902H124.407V104.383Z" fill="#1D1E1F"/>
<path d="M130.926 104.383H124.407V110.902H130.926V104.383Z" fill="#1D1E1F"/>
<path d="M7.07369 110.902H0.555176V117.42H7.07369V110.902Z" fill="#1D1E1F"/>
<path d="M20.1107 110.902H13.5922V117.42H20.1107V110.902Z" fill="#1D1E1F"/>
<path d="M26.6292 110.902H20.1107V117.42H26.6292V110.902Z" fill="#1D1E1F"/>
<path d="M33.1478 110.902H26.6292V117.42H33.1478V110.902Z" fill="#1D1E1F"/>
<path d="M46.1848 110.902H39.6663V117.42H46.1848V110.902Z" fill="#1D1E1F"/>
<path d="M78.7774 110.902H72.2589V117.42H78.7774V110.902Z" fill="#1D1E1F"/>
<path d="M85.2959 110.902H78.7774V117.42H85.2959V110.902Z" fill="#1D1E1F"/>
<path d="M104.851 110.902H98.333V117.42H104.851V110.902Z" fill="#1D1E1F"/>
<path d="M111.37 110.902H104.851V117.42H111.37V110.902Z" fill="#1D1E1F"/>
<path d="M117.889 110.902H111.37V117.42H117.889V110.902Z" fill="#1D1E1F"/>
<path d="M130.926 110.902H124.407V117.42H130.926V110.902Z" fill="#1D1E1F"/>
<path d="M137.444 110.902H130.926V117.42H137.444V110.902Z" fill="#1D1E1F"/>
<path d="M7.07369 117.42H0.555176V123.939H7.07369V117.42Z" fill="#1D1E1F"/>
<path d="M20.1107 117.42H13.5922V123.939H20.1107V117.42Z" fill="#1D1E1F"/>
<path d="M26.6292 117.42H20.1107V123.939H26.6292V117.42Z" fill="#1D1E1F"/>
<path d="M33.1478 117.42H26.6292V123.939H33.1478V117.42Z" fill="#1D1E1F"/>
<path d="M46.1848 117.42H39.6663V123.939H46.1848V117.42Z" fill="#1D1E1F"/>
<path d="M59.2218 117.42H52.7033V123.939H59.2218V117.42Z" fill="#1D1E1F"/>
<path d="M91.8144 117.42H85.2959V123.939H91.8144V117.42Z" fill="#1D1E1F"/>
<path d="M98.333 117.42H91.8144V123.939H98.333V117.42Z" fill="#1D1E1F"/>
<path d="M117.889 117.42H111.37V123.939H117.889V117.42Z" fill="#1D1E1F"/>
<path d="M124.407 117.42H117.889V123.939H124.407V117.42Z" fill="#1D1E1F"/>
<path d="M7.07369 123.939H0.555176V130.457H7.07369V123.939Z" fill="#1D1E1F"/>
<path d="M46.1848 123.939H39.6663V130.457H46.1848V123.939Z" fill="#1D1E1F"/>
<path d="M65.7404 123.939H59.2218L59.2218 130.457H65.7404V123.939Z" fill="#1D1E1F"/>
<path d="M78.7774 123.939H72.2589V130.457H78.7774V123.939Z" fill="#1D1E1F"/>
<path d="M111.37 123.939H104.851V130.457H111.37V123.939Z" fill="#1D1E1F"/>
<path d="M124.407 123.939H117.889V130.457H124.407V123.939Z" fill="#1D1E1F"/>
<path d="M7.07369 130.457H0.555176V136.976H7.07369V130.457Z" fill="#1D1E1F"/>
<path d="M13.5922 130.457H7.07369V136.976H13.5922V130.457Z" fill="#1D1E1F"/>
<path d="M20.1107 130.457H13.5922V136.976H20.1107V130.457Z" fill="#1D1E1F"/>
<path d="M26.6292 130.457H20.1107V136.976H26.6292V130.457Z" fill="#1D1E1F"/>
<path d="M33.1478 130.457H26.6292V136.976H33.1478V130.457Z" fill="#1D1E1F"/>
<path d="M39.6663 130.457H33.1478V136.976H39.6663V130.457Z" fill="#1D1E1F"/>
<path d="M46.1848 130.457H39.6663V136.976H46.1848V130.457Z" fill="#1D1E1F"/>
<path d="M59.2218 130.457H52.7033V136.976H59.2218L59.2218 130.457Z" fill="#1D1E1F"/>
<path d="M65.7404 130.457H59.2218L59.2218 136.976H65.7404V130.457Z" fill="#1D1E1F"/>
<path d="M72.2589 130.457H65.7404V136.976H72.2589V130.457Z" fill="#1D1E1F"/>
<path d="M85.2959 130.457H78.7774V136.976H85.2959V130.457Z" fill="#1D1E1F"/>
<path d="M91.8144 130.457H85.2959V136.976H91.8144V130.457Z" fill="#1D1E1F"/>
<path d="M98.333 130.457H91.8144V136.976H98.333V130.457Z" fill="#1D1E1F"/>
<path d="M124.407 130.457H117.889V136.976H124.407V130.457Z" fill="#1D1E1F"/>
<path d="M137.444 130.457H130.926V136.976H137.444V130.457Z" fill="#1D1E1F"/>
</svg>
