<svg width="15" height="15" viewBox="0 0 15 15" fill="none" xmlns="http://www.w3.org/2000/svg">
<path d="M8.83785 3.67848C9.43571 3.7949 9.98517 4.08674 10.4159 4.51664C10.8466 4.94654 11.139 5.49495 11.2557 6.09167M8.83785 1.23474C10.08 1.37247 11.2383 1.92765 12.1225 2.80912C13.0068 3.6906 13.5645 4.84598 13.7041 6.08556M13.092 10.9608V12.7936C13.0927 12.9638 13.0577 13.1322 12.9895 13.2881C12.9212 13.444 12.821 13.5839 12.6954 13.6989C12.5698 13.814 12.4215 13.9015 12.26 13.9561C12.0985 14.0106 11.9274 14.0308 11.7576 14.0155C9.87404 13.8112 8.06476 13.1688 6.47512 12.1399C4.99617 11.2019 3.74228 9.95044 2.8025 8.47432C1.76802 6.88051 1.12425 5.06591 0.923334 3.17751C0.908038 3.00857 0.928154 2.8383 0.982402 2.67754C1.03665 2.51678 1.12384 2.36906 1.23842 2.24377C1.35301 2.11849 1.49247 2.01839 1.64794 1.94985C1.8034 1.88131 1.97147 1.84584 2.14142 1.84568H3.97774C4.27479 1.84276 4.56278 1.94775 4.78802 2.14108C5.01325 2.33442 5.16037 2.6029 5.20195 2.89648C5.27945 3.48302 5.42319 4.05893 5.63042 4.61321C5.71277 4.83188 5.7306 5.06953 5.68178 5.298C5.63296 5.52646 5.51954 5.73618 5.35497 5.90228L4.5776 6.67817C5.44896 8.20767 6.71779 9.47408 8.25023 10.3438L9.0276 9.56789C9.19402 9.40363 9.40414 9.29043 9.63304 9.24171C9.86195 9.19298 10.1001 9.21077 10.3191 9.29297C10.8745 9.4998 11.4515 9.64327 12.0392 9.72062C12.3365 9.76249 12.608 9.91197 12.8022 10.1406C12.9963 10.3693 13.0994 10.6612 13.092 10.9608Z" stroke="white" stroke-opacity="0.9" stroke-width="1.3699" stroke-linecap="round" stroke-linejoin="round"/>
</svg>
